<?xml version="1.0" encoding="iso-8859-1"?>
<svg fill="#000000" version="1.1" id="Layer_1" xmlns="http://www.w3.org/2000/svg" xmlns:xlink="http://www.w3.org/1999/xlink" 
	 viewBox="0 0 512 512" xml:space="preserve">
	<g><g><rect y="100.174" width="33.391" height="144.696"/></g></g><g><g><rect x="311.652" y="100.174" width="33.391" height="144.696"/></g></g><g><g><rect x="100.174" width="144.696" height="33.391"/></g></g><g><g><rect x="33.391" y="66.783" width="33.391" height="33.391"/></g></g><g><g><rect x="66.783" y="33.391" width="33.391" height="33.391"/></g></g><g><g><rect x="244.87" y="33.391" width="33.391" height="33.391"/></g></g><g><g><rect x="278.261" y="66.783" width="33.391" height="33.391"/></g></g><g><g><rect x="33.391" y="244.87" width="33.391" height="33.391"/></g></g><g>	<g><rect x="278.261" y="244.87" width="33.391" height="33.391"/>	</g></g><g>	<g>		<polygon points="244.87,278.261 244.87,311.652 211.478,311.652 211.478,345.043 278.261,345.043 278.261,278.261 		"/>	</g></g><g><g><rect x="33.391" y="345.043" width="33.391" height="33.391"/></g></g><g>	<g>		<polygon points="100.174,311.652 100.174,278.261 66.783,278.261 66.783,345.043 133.565,345.043 133.565,311.652 		"/>	</g></g><g>	<g>		<polygon points="411.826,378.435 411.826,345.043 378.435,345.043 378.435,378.435 345.043,378.435 345.043,411.826 			378.435,411.826 378.435,445.217 411.826,445.217 411.826,411.826 445.217,411.826 445.217,378.435 		"/>	</g></g><g>	<g><rect x="478.609" y="345.043" width="33.391" height="100.174"/>	</g></g><g>	<g><rect x="345.043" y="478.609" width="100.174" height="33.391"/>	</g></g><g>	<g><rect x="345.043" y="278.261" width="100.174" height="33.391"/>	</g></g><g>	<g>		<polygon points="278.261,345.043 278.261,411.826 33.391,411.826 33.391,378.435 0,378.435 0,445.217 311.652,445.217 			311.652,345.043 		"/>	</g></g><g><g><rect x="311.652" y="311.652" width="33.391" height="33.391"/></g></g><g>	<g><rect x="445.217" y="311.652" width="33.391" height="33.391"/>	</g></g><g><g><rect x="445.217" y="445.217" width="33.391" height="33.391"/></g></g><g><g><rect x="311.652" y="445.217" width="33.391" height="33.391"/></g></g>
</svg>