<svg fill="#ffffff" height="200px" width="200px" version="1.1" xmlns="http://www.w3.org/2000/svg" viewBox="0 0 512 512" xmlns:xlink="http://www.w3.org/1999/xlink" enable-background="new 0 0 512 512" stroke="#ffffff"><g id="SVGRepo_bgCarrier" stroke-width="0"></g><g id="SVGRepo_tracerCarrier" stroke-linecap="round" stroke-linejoin="round"></g><g id="SVGRepo_iconCarrier"> <g> <g> <path d="m182.8,376.9c10.6-10.6 12.7-26.8 6.4-39.6l68.3-68.3c4.7,2.4 10,3.8 15.6,3.8 18.8,0 34.4-15.6 34.4-34.4 0-15.3-10.4-28.6-24.5-32.9v-94.7c11-3.2 19.8-11.8 23.4-22.6h95.1c4.5,13.8 17.6,24 32.7,24 18.8,0 34.4-15.6 34.4-34.4 0-18.8-15.6-34.4-34.4-34.4-15.1,0-28.2,10.2-32.7,24h-95.1c-4.5-13.8-17.6-24-32.7-24-18.8,0-34.4,15.6-34.4,34.4 0,14.8 9.7,27.6 22.9,32.4v95.7c-13.5,4.7-23.5,17.6-23.5,32.6 0,5.7 1.5,11.1 4,15.9l-68,68c-13-6.9-29.8-4.9-40.6,5.9-13.3,13.3-13.3,35.4 0,48.7 13.4,13.2 35.5,13.2 48.7-0.1zm251.5-312.7c7.3,1.42109e-14 13.6,6.3 13.6,13.6 0,7.3-6.3,13.6-13.6,13.6-7.3,0-13.6-6.3-13.6-13.6 0-7.4 6.3-13.6 13.6-13.6zm-160.6,0c7.3,0 13.6,6.3 13.6,13.6 0,7.3-6.3,13.6-13.6,13.6-7.3,0-13.6-6.3-13.6-13.6 0.1-7.4 6.3-13.6 13.6-13.6zm-.5,160.7c7.3,2.84217e-14 13.6,6.3 13.6,13.6 0,7.3-6.3,13.6-13.6,13.6-7.3,0-13.6-6.3-13.6-13.6 5.68434e-14-7.4 6.3-13.6 13.6-13.6zm-124.3,118.1c5.2-5.2 14-5.2 19.2,0 5.2,5.2 5.2,14 0,19.2-5.2,5.2-14,5.2-19.2,0-5.1-5.2-5.1-14.1 0-19.2z"></path> <path d="M442.6,480.1v-32.3h-20.9v32.3h-48v-32.3H353v32.3H306v-32.3h-20.9v32.3h-48v-32.3h-20.9v32.3h-48v-32.3h-20.9v32.3h-46.9 v-32.3H79.8v32.3h-48v-48h32.3v-20.9H31.9v-48h32.3v-20.9H31.9v-46.9h32.3v-20.9H31.9v-48h32.3V206H31.9v-48h32.3v-20.9H31.9v-48 h32.3V68.3H31.9V11H11v479.6c0,5.2,4.2,10.4,10.4,10.4H501v-20.9H442.6z"></path> </g> </g> </g></svg>